<?xml version="1.0" encoding="utf-8"?>
<!-- Generator: Adobe Illustrator 23.0.2, SVG Export Plug-In . SVG Version: 6.00 Build 0)  -->
<svg version="1.1" id="Layer_1" xmlns="http://www.w3.org/2000/svg" xmlns:xlink="http://www.w3.org/1999/xlink" x="0px" y="0px"
	 viewBox="0 0 4680 3200" style="enable-background:new 0 0 4680 3200;" xml:space="preserve">
<style type="text/css">
	.st0{clip-path:url(#mask_1_);fill-rule:evenodd;clip-rule:evenodd;fill:#FFF5EE;}
	.st1{clip-path:url(#mask_1_);fill-rule:evenodd;clip-rule:evenodd;fill:#FFE1C8;}
	.st2{clip-path:url(#mask_1_);}
	.st3{fill:#FFE1C8;}
	.st4{fill-rule:evenodd;clip-rule:evenodd;fill:#F75A1D;}
	.st5{fill-rule:evenodd;clip-rule:evenodd;fill:#FFFFFF;}
	.st6{fill:none;stroke:#000000;stroke-width:4;stroke-linecap:round;stroke-linejoin:round;stroke-miterlimit:10;}
	.st7{fill:none;stroke:#000000;stroke-width:9;stroke-linecap:round;stroke-linejoin:round;stroke-miterlimit:10;}
	.st8{fill-rule:evenodd;clip-rule:evenodd;fill:#FFDCDF;}
	.st9{fill:none;stroke:#3C241B;stroke-width:4;stroke-linecap:round;stroke-linejoin:round;stroke-dasharray:27.0622,27.0622;}
	.st10{clip-path:url(#SVGID_2_);}
	.st11{fill:none;stroke:#3C241B;stroke-width:4;stroke-linecap:round;stroke-linejoin:round;stroke-miterlimit:10;}
	.st12{fill-rule:evenodd;clip-rule:evenodd;fill:#3C241B;}
	.st13{fill-rule:evenodd;clip-rule:evenodd;fill:#F75A1D;stroke:#3C241B;stroke-width:4;stroke-miterlimit:10;}
	
		.st14{fill-rule:evenodd;clip-rule:evenodd;fill:none;stroke:#3C241B;stroke-width:4;stroke-linecap:round;stroke-linejoin:round;stroke-miterlimit:10;}
	.st15{clip-path:url(#SVGID_2_);fill-rule:evenodd;clip-rule:evenodd;fill:none;}
	
		.st16{clip-path:url(#SVGID_2_);fill:none;stroke:#FFFFFF;stroke-width:4;stroke-linecap:round;stroke-linejoin:round;stroke-miterlimit:10;}
	.st17{fill-rule:evenodd;clip-rule:evenodd;fill:#FFFFFF;stroke:#3C241B;stroke-width:4;stroke-miterlimit:10;}
	.st18{fill:none;stroke:#F75A1D;stroke-width:4;stroke-linecap:round;stroke-linejoin:round;stroke-miterlimit:10;}
	.st19{fill:none;stroke:#FFFFFF;stroke-width:4;stroke-linecap:round;stroke-linejoin:round;stroke-miterlimit:10;}
	.st20{fill-rule:evenodd;clip-rule:evenodd;fill:#3C41F7;stroke:#3C241B;stroke-width:4;stroke-miterlimit:10;}
	.st21{fill:none;stroke:#543838;stroke-width:4;stroke-linecap:round;stroke-linejoin:round;stroke-miterlimit:10;}
	.st22{fill:none;stroke:#3C241B;stroke-width:5;stroke-linecap:round;stroke-linejoin:round;stroke-miterlimit:10;}
	
		.st23{clip-path:url(#SVGID_4_);fill:none;stroke:#FFFFFF;stroke-width:4;stroke-linecap:round;stroke-linejoin:round;stroke-miterlimit:10;}
	
		.st24{fill-rule:evenodd;clip-rule:evenodd;fill:none;stroke:#FFFFFF;stroke-width:4;stroke-linecap:round;stroke-linejoin:round;stroke-miterlimit:10;}
	
		.st25{fill-rule:evenodd;clip-rule:evenodd;fill:none;stroke:#F75A1D;stroke-width:4;stroke-linecap:round;stroke-linejoin:round;stroke-miterlimit:10;}
	
		.st26{fill-rule:evenodd;clip-rule:evenodd;fill:none;stroke:#FFDBDF;stroke-width:4;stroke-linecap:round;stroke-linejoin:round;stroke-miterlimit:10;}
	.st27{fill:#FFFFFF;}
	.st28{fill:none;stroke:#3C241B;stroke-width:4;stroke-linejoin:round;stroke-miterlimit:10;}
	.st29{fill:none;stroke:#3C241B;stroke-width:4;stroke-miterlimit:10;}
	.st30{fill:#FFFFFF;stroke:#3C241B;stroke-width:4;stroke-miterlimit:10;}
	
		.st31{clip-path:url(#mask_1_);fill-rule:evenodd;clip-rule:evenodd;fill:#FDBFC5;stroke:#3C241B;stroke-width:4;stroke-miterlimit:10;}
	.st32{fill-rule:evenodd;clip-rule:evenodd;fill:#3C41F7;}
	
		.st33{fill-rule:evenodd;clip-rule:evenodd;fill:#FFFFFF;stroke:#000000;stroke-width:4;stroke-linecap:round;stroke-linejoin:round;stroke-miterlimit:10;}
	
		.st34{fill-rule:evenodd;clip-rule:evenodd;fill:#FFFFFF;stroke:#3C241B;stroke-width:4;stroke-linecap:round;stroke-linejoin:round;stroke-miterlimit:10;}
	
		.st35{clip-path:url(#mask_1_);fill-rule:evenodd;clip-rule:evenodd;fill:#F75A1D;stroke:#3C241B;stroke-width:4;stroke-miterlimit:10;}
	.st36{clip-path:url(#mask_1_);fill:none;stroke:#3C241B;stroke-width:4;stroke-miterlimit:10;}
	
		.st37{fill-rule:evenodd;clip-rule:evenodd;fill:none;stroke:#3C41F7;stroke-width:120;stroke-linecap:round;stroke-linejoin:round;stroke-miterlimit:10;}
	.st38{fill:none;stroke:#F75A1D;stroke-width:120;stroke-linecap:round;stroke-linejoin:round;stroke-miterlimit:10;}
</style>
<g>
	<defs>
		<path id="mask" d="M3868.7,542.7H811.3c-51.7,0-93.6,41.9-93.6,93.6v1942.4c0,51.7,41.9,93.6,93.6,93.6h3057.4
			c51.7,0,93.6-41.9,93.6-93.6V636.3C3962.3,584.6,3920.4,542.7,3868.7,542.7z"/>
	</defs>
	<clipPath id="mask_1_">
		<use xlink:href="#mask"  style="overflow:visible;"/>
	</clipPath>
	<path class="st0" d="M3868.7,542.7H811.3c-51.7,0-93.6,41.9-93.6,93.6v1942.4c0,51.7,41.9,93.6,93.6,93.6h3057.4
		c51.7,0,93.6-41.9,93.6-93.6V636.3C3962.3,584.6,3920.4,542.7,3868.7,542.7z"/>
	<circle class="st1" cx="2431.2" cy="2065.5" r="868.5"/>
	<g class="st2">
		<circle class="st3" cx="922.7" cy="1726.3" r="24.8"/>
		
			<ellipse transform="matrix(0.5257 -0.8507 0.8507 0.5257 -983.8013 1688.0547)" class="st3" cx="1022" cy="1726.3" rx="24.8" ry="24.8"/>
		
			<ellipse transform="matrix(0.2298 -0.9732 0.9732 0.2298 -816.4858 2420.9304)" class="st3" cx="1121.2" cy="1726.3" rx="24.8" ry="24.8"/>
		
			<ellipse transform="matrix(0.8817 -0.4719 0.4719 0.8817 -670.1492 780.1893)" class="st3" cx="1220.5" cy="1726.3" rx="24.8" ry="24.8"/>
		
			<ellipse transform="matrix(0.9487 -0.3162 0.3162 0.9487 -478.175 505.9574)" class="st3" cx="1319.8" cy="1726.3" rx="24.8" ry="24.8"/>
		<circle class="st3" cx="922.7" cy="1825.6" r="24.8"/>
		
			<ellipse transform="matrix(0.8507 -0.5257 0.5257 0.8507 -807.1469 809.9238)" class="st3" cx="1022" cy="1825.6" rx="24.8" ry="24.8"/>
		
			<ellipse transform="matrix(0.1222 -0.9925 0.9925 0.1222 -827.6711 2715.3862)" class="st3" cx="1121.2" cy="1825.6" rx="24.8" ry="24.8"/>
		
			<ellipse transform="matrix(0.9487 -0.3162 0.3162 0.9487 -514.6707 479.6529)" class="st3" cx="1220.5" cy="1825.6" rx="24.8" ry="24.8"/>
		
			<ellipse transform="matrix(0.8817 -0.4719 0.4719 0.8817 -705.2518 838.7886)" class="st3" cx="1319.8" cy="1825.6" rx="24.8" ry="24.8"/>
		<circle class="st3" cx="922.7" cy="1924.9" r="24.8"/>
		
			<ellipse transform="matrix(0.9571 -0.2898 0.2898 0.9571 -513.9542 378.7387)" class="st3" cx="1022" cy="1924.9" rx="24.8" ry="24.8"/>
		
			<ellipse transform="matrix(8.248050e-02 -0.9966 0.9966 8.248050e-02 -889.5699 2883.553)" class="st3" cx="1121.2" cy="1924.9" rx="24.8" ry="24.8"/>
		
			<ellipse transform="matrix(0.9732 -0.2298 0.2298 0.9732 -409.5994 331.916)" class="st3" cx="1220.5" cy="1924.9" rx="24.8" ry="24.8"/>
		
			<ellipse transform="matrix(0.7071 -0.7071 0.7071 0.7071 -974.534 1497.0543)" class="st3" cx="1319.8" cy="1924.9" rx="24.8" ry="24.8"/>
		<circle class="st3" cx="922.7" cy="2024.2" r="24.8"/>
		
			<ellipse transform="matrix(0.5257 -0.8507 0.8507 0.5257 -1237.1992 1829.3333)" class="st3" cx="1022" cy="2024.2" rx="24.8" ry="24.8"/>
		
			<ellipse transform="matrix(0.2298 -0.9732 0.9732 0.2298 -1106.4041 2650.377)" class="st3" cx="1121.2" cy="2024.2" rx="24.8" ry="24.8"/>
		
			<ellipse transform="matrix(0.8817 -0.4719 0.4719 0.8817 -810.7098 815.437)" class="st3" cx="1220.5" cy="2024.2" rx="24.8" ry="24.8"/>
		
			<ellipse transform="matrix(0.9487 -0.3162 0.3162 0.9487 -572.3752 521.244)" class="st3" cx="1319.8" cy="2024.2" rx="24.8" ry="24.8"/>
		<circle class="st3" cx="922.7" cy="2123.5" r="24.8"/>
		
			<ellipse transform="matrix(0.8507 -0.5257 0.5257 0.8507 -963.7556 854.4131)" class="st3" cx="1022" cy="2123.5" rx="24.8" ry="24.8"/>
		
			<ellipse transform="matrix(0.1222 -0.9925 0.9925 0.1222 -1123.3263 2976.8765)" class="st3" cx="1121.2" cy="2123.5" rx="24.8" ry="24.8"/>
		
			<ellipse transform="matrix(0.9487 -0.3162 0.3162 0.9487 -608.8708 494.9394)" class="st3" cx="1220.5" cy="2123.5" rx="24.8" ry="24.8"/>
		
			<ellipse transform="matrix(0.8817 -0.4719 0.4719 0.8817 -845.812 874.0361)" class="st3" cx="1319.8" cy="2123.5" rx="24.8" ry="24.8"/>
		<circle class="st3" cx="922.7" cy="2222.8" r="24.8"/>
		
			<ellipse transform="matrix(0.982 -0.1891 0.1891 0.982 -401.9043 233.365)" class="st3" cx="1022" cy="2222.8" rx="24.8" ry="24.8"/>
		
			<ellipse transform="matrix(6.213722e-02 -0.9981 0.9981 6.213722e-02 -1166.9108 3203.7427)" class="st3" cx="1121.2" cy="2222.8" rx="24.8" ry="24.8"/>
		
			<ellipse transform="matrix(0.984 -0.1784 0.1784 0.984 -377.0131 253.442)" class="st3" cx="1220.5" cy="2222.8" rx="24.8" ry="24.8"/>
		
			<ellipse transform="matrix(0.4719 -0.8817 0.8817 0.4719 -1262.7078 2337.6104)" class="st3" cx="1319.8" cy="2222.8" rx="24.8" ry="24.8"/>
	</g>
	<g class="st2">
		<path class="st4" d="M1741,1402.6c81.4,0,147.5,66.1,147.5,147.5c0,81.4-66.1,147.5-147.5,147.5c-81.4,0-147.5-66.1-147.5-147.5
			C1593.5,1468.7,1659.6,1402.6,1741,1402.6L1741,1402.6z"/>
		<path class="st5" d="M1741,1434.3c65.1,0,118,51.9,118,115.8c0,63.9-52.9,115.8-118,115.8c-65.1,0-118-51.9-118-115.8
			C1623,1486.2,1675.9,1434.3,1741,1434.3L1741,1434.3z"/>
		<path class="st6" d="M1742.4,1401.1c81.8,0,148.3,66.1,148.3,147.5c0,81.4-66.4,147.5-148.3,147.5s-148.3-66.1-148.3-147.5
			C1594.1,1467.2,1660.6,1401.1,1742.4,1401.1L1742.4,1401.1z"/>
		<polyline class="st7" points="1747,1502.6 1745.5,1569.9 1696.5,1570.6 		"/>
	</g>
	<g class="st2">
		<g>
			<path class="st8" d="M3628.1,938.6c0-8.9-3.5-17.4-9.8-23.7c-6.3-6.3-14.8-9.8-23.7-9.8c-136.2,0-647.7,0-781.8,0
				c-17.9,0-32.4,14.5-32.4,32.4c0,103.7,0,427.9,0,544.8c0,11.3,4.5,22.2,12.5,30.2c8,8,18.8,12.5,30.1,12.5
				c143.7,0,609.8,0,758.8,0c25.6,0,46.3-20.7,46.3-46.3C3628.1,1359.2,3628.1,1042.5,3628.1,938.6L3628.1,938.6z"/>
			<path class="st9" d="M3628.1,938.6c0-8.9-3.5-17.4-9.8-23.7c-6.3-6.3-14.8-9.8-23.7-9.8c-136.2,0-647.7,0-781.8,0
				c-17.9,0-32.4,14.5-32.4,32.4c0,103.7,0,427.9,0,544.8c0,11.3,4.5,22.2,12.5,30.2c8,8,18.8,12.5,30.1,12.5
				c143.7,0,609.8,0,758.8,0c25.6,0,46.3-20.7,46.3-46.3C3628.1,1359.2,3628.1,1042.5,3628.1,938.6z"/>
		</g>
		<g>
			<g>
				<defs>
					<path id="SVGID_1_" d="M3586,1525h-763.6c-23.2,0-42.1-18.8-42.1-42.1V947.2c0-23.2,18.8-42.1,42.1-42.1H3586
						c23.2,0,42.1,18.8,42.1,42.1v535.7C3628.1,1506.1,3609.3,1525,3586,1525z"/>
				</defs>
				<clipPath id="SVGID_2_">
					<use xlink:href="#SVGID_1_"  style="overflow:visible;"/>
				</clipPath>
				<g class="st10">
					<path class="st11" d="M3022.2,1363.2c0-7.3-6.4-13.1-14.3-13.1h-121.1c-7.9,0-14.3,5.9-14.3,13.1v26.3
						c0,7.3,6.4,13.1,14.3,13.1h121.1c7.9,0,14.3-5.9,14.3-13.1V1363.2L3022.2,1363.2z"/>
					<path class="st12" d="M2911.4,1365.5c6.1,0,11,4.6,11,10.2c0,5.6-4.9,10.2-11,10.2c-6.1,0-11-4.6-11-10.2
						C2900.3,1370.1,2905.3,1365.5,2911.4,1365.5L2911.4,1365.5z"/>
					<path class="st12" d="M2949.6,1365.8c6.1,0,11,4.6,11,10.2c0,5.6-4.9,10.2-11,10.2c-6.1,0-11-4.6-11-10.2
						C2938.6,1370.3,2943.5,1365.8,2949.6,1365.8L2949.6,1365.8z"/>
					<path class="st12" d="M2985.8,1365.7c6.1,0,11,4.6,11,10.2c0,5.6-4.9,10.2-11,10.2c-6.1,0-11-4.6-11-10.2
						C2974.8,1370.3,2979.7,1365.7,2985.8,1365.7L2985.8,1365.7z"/>
					<path class="st5" d="M3215.9,1116.5c0,0,2.3,101.9,36.2,148c8.4,11.4,38.8,11.7,56.8,5.2c-0.9,36.9,3.3,52.2,3.3,52.2
						s61.7,47.3,95.3-13.8c-4.4-37.1-8.2-108.7-8.2-108.7s61.6-13.1,41.2-60.2c-7.6-17.6-35.7,10.4-35.7,10.4l-16-69.4l-95.8-32
						L3215.9,1116.5L3215.9,1116.5z"/>
					<path class="st12" d="M3308.2,1135.9c3.6,0,6.5,2.9,6.5,6.5c0,3.6-2.9,6.5-6.5,6.5s-6.5-2.9-6.5-6.5
						C3301.7,1138.8,3304.6,1135.9,3308.2,1135.9L3308.2,1135.9z"/>
					<path class="st12" d="M3242.5,1147.1c3.6,0,6.5,2.9,6.5,6.5c0,3.6-2.9,6.5-6.5,6.5c-3.6,0-6.5-2.9-6.5-6.5
						C3236,1150.1,3238.9,1147.1,3242.5,1147.1L3242.5,1147.1z"/>
					<polyline class="st11" points="3263.2,1177.1 3261.2,1194.7 3268.4,1192.3 					"/>
					<path class="st12" d="M3216.7,1121.1c0,0-52.5,5.4-63-44.2c-5.8-27.5,23.9-80.5,58.4-94.1c33.6-13.3,61.7,8.1,61.7,8.1
						s7.7-18.5,16.7-27.2c13.3-12.9,49.5-22.1,74-7.2c32.5,19.7,22.8,65.3,22.8,65.3s38.4-9.1,56.4,19.3
						c21.8,34.4-10.1,52.4-10.1,52.4s35.2,16.8,38.8,51.9c2.8,27.8-9.4,40.2-39.7,57.6c-21.2,12.2-34.1-2.7-34.1-2.7
						s44.9-21.1,46.2-37.8c1.3-17.8-12.4-26.4-40.2-12.9c-21.4-7.1-19.8-41.9-19.8-41.9s-27.9-2.3-34.3-13.3
						c-8.2-14.3-9.6-28.1-9.6-28.1s-11.7,20.6-41.1,25.3c-12.9,2-36.5-14.3-36.5-14.3S3254.1,1111.6,3216.7,1121.1L3216.7,1121.1z"
						/>
					<path class="st13" d="M3310.6,1312.2c0,0-129.7-3.1-198.4,92.5c-51.3,71.5-45.7,119.7-45.7,119.7l272.6,4.6l285.1,2.7
						c0,0-83.7-211.1-216.5-224.9c-8.8,8.3-26.9,33.5-49.3,32.3C3343.2,1338.3,3326.9,1336.3,3310.6,1312.2L3310.6,1312.2z"/>
					<path class="st14" d="M3308.9,1269.8c0,0,52.8-5.9,71.1-54"/>
					<path class="st12" d="M3256.8,1214l46-4.1c0,0,2.7,24.3-21.6,25.2C3261,1235.8,3256.8,1214,3256.8,1214L3256.8,1214z"/>
				</g>
				<path class="st15" d="M3310.6,1312.2c0,0-129.7-3.1-198.4,92.5c-51.3,71.5-45.7,119.7-45.7,119.7l272.6,4.6l285.1,2.7
					c0,0-83.7-211.1-216.5-224.9c-8.8,8.3-26.9,33.5-49.3,32.3C3343.2,1338.3,3326.9,1336.3,3310.6,1312.2L3310.6,1312.2z"/>
				<path class="st16" d="M3178.2,1347.6c0,0,83.5,24.1,172.7,22.7c49.2-0.8,100.5-20.8,139.4-29.8 M3134.2,1381.7
					c0,0,48.7,12.1,63.7,21.8c8.7,5.6,53.9,20.7,109.4,32.2c58.8,12.2,136.4-6.3,149.4-7.3c34.8-2.7,74.4-25.1,87.9-32
					 M3080.9,1463.5c0,0,59.9,13.2,100.6,24.6c171.4,48.3,274.1-2.5,297.5,0.4c43.1,5.4,109.8-32.8,110.1-33.1"/>
			</g>
			<g>
				<path class="st17" d="M2995.2,997.5c0-6.1-5.1-11.1-11.4-11.1c-47.9,0-232.5,0-282.9,0c-7.1,0-12.8,5.6-12.8,12.4
					c0,45.1,0,200,0,237.9c0,4.6,3.9,8.4,8.7,8.4c43.6,0,239.2,0,287.6,0c6,0,10.9-4.7,10.9-10.5
					C2995.2,1193,2995.2,1040.1,2995.2,997.5L2995.2,997.5z"/>
				<path class="st12" d="M2749.7,1055.4c6,0,10.8,4.8,10.8,10.8c0,6-4.8,10.8-10.8,10.8c-6,0-10.8-4.8-10.8-10.8
					C2738.9,1060.2,2743.8,1055.4,2749.7,1055.4L2749.7,1055.4z"/>
				<path class="st12" d="M2749.6,1106.5c5.5,0,10,4.5,10,10s-4.5,10-10,10c-5.5,0-10-4.5-10-10S2744.1,1106.5,2749.6,1106.5
					L2749.6,1106.5z"/>
				<path class="st12" d="M2751,1158.6c5.5,0,10,4.5,10,10c0,5.5-4.5,10-10,10c-5.5,0-10-4.5-10-10
					C2740.9,1163.1,2745.4,1158.6,2751,1158.6L2751,1158.6z"/>
				<path class="st18" d="M2787.5,1064.4H2930 M2786.3,1117.7l142.6-1.1 M2787.4,1167.6H2930"/>
			</g>
		</g>
	</g>
	<g class="st2">
		<path class="st4" d="M2088.1,1920.2c0,0-425.4-43.1-484.5,69.4c-41.1,78.1-31.5,249.1-27.1,362.6c3.9,103.2,9.7,301.7,9.7,301.7
			s378,5.7,389.6,2.9C1987.3,2654,2088.1,1920.2,2088.1,1920.2L2088.1,1920.2z"/>
		<path class="st19" d="M1658.9,1980.6c0,0,37.4,36.9,24.3,144.1"/>
	</g>
	<g class="st2">
		<path class="st20" d="M2175.1,1855.7c0,0-270.9,125.8-305.4,342.2c-34.8,218.5-14.9,467.9-14.9,467.9s652.1,124,809.5-41.6
			c107.6-113.3,298.2-765.9,298.2-765.9l-95.6-32.8l-188.6,310.2c0,0-184.3-207.6-284.1-254.1"/>
		<path class="st5" d="M2869.6,1827l11.6-20.9c0,0,4.4-107.1,30.9-106.1c22.6,0.8,12.3,38.4,12.3,38.4s90.4-83.2,104.7-65.8
			c3.2,3.8,1,9,1,9s13-12.6,21.5-5.7c7.8,6.4-3.3,17-3.3,17s15.2-10.1,22.1-2c6.4,7.6-10.6,23.1-10.6,23.1s6.3-3.4,11,3.1
			c4.5,6.3-12.1,22.1-18.1,27.7c-18.1,17.2-86.8,83.4-86.8,83.4l-7.1,29.1L2869.6,1827L2869.6,1827z"/>
		<path class="st5" d="M2373.1,1814.5l-6.7,40.6l8.7,8.9l20.3,17.8c0,0-30.8,51-105.3,37.9c-79.2-14-116.4-63.7-116.4-63.7l79.9-24
			l17.8-122.3"/>
		<path class="st5" d="M2478.1,1562.2c0,0-0.2,99.6-14,175.3c-7.7,42-14.2,82.3-39.1,87.2c-30.8,6-154.7-16.8-157.3-55.7
			c-1.5-22.7,8.8-58.3,8.8-58.3s-24.9,3.1-43.7-14.6c-13.4-12.5-28.3-55.2-5.9-71.6c27.4-20.2,60.7,32.7,60.7,32.7l19.6-67.6
			c0,0,81.4-109.9,170.1-34.4"/>
		<path class="st12" d="M2382.1,1723.7l49.4,1.6c0,0-0.3,26.2-26.2,23.9C2383.6,1747.5,2382.1,1723.7,2382.1,1723.7L2382.1,1723.7z"
			/>
		<path class="st12" d="M2364.5,1639.9c3.4,0,6.1,3,6.1,6.6s-2.7,6.6-6.1,6.6c-3.4,0-6.1-3-6.1-6.6S2361.2,1639.9,2364.5,1639.9
			L2364.5,1639.9z"/>
		<path class="st12" d="M2446.5,1629.4c3.4,0,6.1,3,6.1,6.6s-2.7,6.6-6.1,6.6c-3.4,0-6.1-3-6.1-6.6S2443.2,1629.4,2446.5,1629.4
			L2446.5,1629.4z"/>
		<path class="st12" d="M2272.9,1732.5c0,0-172.7-29.2-125.6-134.9c16.3-36.7,57.2-28.5,57.2-28.5s-10.9-66.9,27.8-93.2
			c38.2-25.9,68.2,10.5,68.2,10.5s-1.6-83.7,79.2-92.1c68.9-7.2,73.5,66.5,73.5,66.5s90.5-3.9,94.3,40.9
			c5.3,62.8-70.5,59.8-70.5,59.8s-68.2,54.8-158.9,29.4c-15.3-4.3-25.9,76-25.9,76s-41.5-55.4-61.6-40.6
			c-16.3,12.1-16.7,39.1-1.9,55.4c16.3,18.1,48.8,25.2,48.8,25.2L2272.9,1732.5L2272.9,1732.5z"/>
		<path class="st21" d="M2369.6,1820.5c-33.1-8.3-71.4-30.8-80.6-71 M2930.8,1746.7c0,0,20.9,24.4,10.6,48.7"/>
		<path class="st21" d="M3028.7,1682.5c0,0-30.4,22.3-38.4,30.8"/>
		<path class="st21" d="M3047.1,1694c0,0-34.9,26.7-41.9,32.8"/>
		<path class="st21" d="M3058.8,1714.7c0,0-29.2,20.8-36.5,28.5"/>
		<path class="st21" d="M2243,1649.2l25.4,29.7 M2256.2,1664.6l-9,11.5"/>
		<polyline class="st22" points="2423,1673.3 2427.1,1700 2414.4,1696.1 		"/>
		<path class="st5" d="M2469.1,2573.6c0,0,41.5-17.8,77.2-15.9c33.8,1.8,44.8,6.4,65,18.8c13.8,8.4,15.1,23.5,15.1,23.5h-157.2
			L2469.1,2573.6L2469.1,2573.6z"/>
		<g>
			<defs>
				<path id="SVGID_3_" d="M2175.1,1855.7c0,0-270.9,125.8-305.4,342.2c-34.8,218.5-14.9,467.9-14.9,467.9s652.1,124,809.5-41.6
					c107.6-113.3,298.2-765.9,298.2-765.9l-95.6-32.8l-188.6,310.2c0,0-184.3-207.6-284.1-254.1"/>
			</defs>
			<clipPath id="SVGID_4_">
				<use xlink:href="#SVGID_3_"  style="overflow:visible;"/>
			</clipPath>
			<path class="st23" d="M2473.4,2050.8c85.6,116.7,160,339.3,135,551 M2677.5,2133.6c0,0-27.1,37.1-32.8,67.7
				c-8.5,46.1-1.8,76.5-1.8,76.5"/>
			<path class="st23" d="M2120.2,2105.2c0,0,10.5,246.5,94.9,354.2c52.7,67.3,128.3,100.8,251.3,104.8c1.1,18.3,1.1,32.3,1.1,32.3
				 M1892.7,2255.3c0,0,26.9,277.8,207.1,371.4 M2316.2,1920.9l-12.4,85.6c0,0-55.7-16.4-104.1-54.6c-25.2-19.9-46.7-49.2-61-77.6
				 M2323.3,1921c0,0,28,81.7,27.8,82.8c-0.2,1.1,40.1-16,70.7-107.8"/>
		</g>
		<g>
			<path class="st24" d="M2200.5,2058.9c0,0,18.4,34.3-16.9,44.2"/>
			<path class="st25" d="M2342.2,2132.8c0,0-1.1-38.9,34.9-31.9"/>
			<path class="st24" d="M2449.7,2018.1c0,0,34.3-18.4,44.2,16.9"/>
			<path class="st25" d="M2604.2,2145.9c0,0-34.7-17.7-11.4-45.9"/>
			<path class="st25" d="M2220.2,2338.6c0,0,18.5-34.3,46.2-10.2"/>
			<path class="st25" d="M2504.9,2338.1c0,0,15.1-35.9,44.9-14.7"/>
			<path class="st24" d="M2367.1,2247.6c0,0,38.4-6.4,36.4,30.2"/>
			<path class="st24" d="M2343.1,2434.1c0,0,37.7,9.7,21.1,42.3"/>
			<path class="st24" d="M2523.9,2460.4c0,0-9.8,37.7-42.4,21"/>
			<path class="st25" d="M1993.9,2161.1c0,0,10.8-37.4,42.9-19.8"/>
			<path class="st26" d="M2046,2370.9c0,0,34.3-18.4,44.2,16.9"/>
		</g>
	</g>
	<g class="st2">
		<polygon class="st27" points="1211.1,2116.4 1758.1,2116.4 1760.1,2632 1211.1,2632 		"/>
		<polygon class="st27" points="1758.1,2116.4 1862.2,2189.9 1862.2,2632 1758.1,2632 		"/>
		<polygon class="st27" points="1760.1,2116.4 1864.1,2189.9 1862.2,2292 1758.1,2248.4 		"/>
		<path class="st28" d="M1212.7,2249.3c182.6-0.9,362.9-0.9,545.4-0.9c32.2,14.3,71.3,28.9,104,43.6"/>
		<line class="st29" x1="1211.1" y1="2632" x2="1211.1" y2="2116.4"/>
		<line class="st30" x1="1760.1" y1="2116.4" x2="1758.1" y2="2632"/>
	</g>
	<g class="st2">
		<path class="st20" d="M1181.7,2047.6h364.4c11.1,0,21.5,35.9,11.8,68.8c-13.5,0-376.2,0-376.2,0"/>
		<path class="st13" d="M1211.1,1991.7h295.5c9,0,17.4,29.1,9.6,55.8c-10.9,0-305.1,0-305.1,0V1991.7z"/>
	</g>
	<rect x="2092.9" y="2596.1" class="st31" width="1298.9" height="35.8"/>
	<g class="st2">
		<path class="st17" d="M3314.8,2109.4h-564.2c-25.4,0-47.8,18.3-55,44.8l-114.9,424.4h-356.4v17.4h379.6l4.1-15.3h655.9
			l105.9-391.1C3380.7,2149.6,3353.1,2109.4,3314.8,2109.4z"/>
		<path class="st17" d="M2767.4,2127.7h555.2c38.3,0,65.9,40,55,79.8l-105.9,388.6h-674.8l115.5-423.9
			C2719.6,2145.8,2742,2127.7,2767.4,2127.7z"/>
	</g>
	<g class="st2">
		<path class="st32" d="M3004.2,2524.9c-5.3-20.7-25.7-97.3-8.1-124.6c10.6-16.5,29.7-30.6,36.3-49.3c4.9-13.6,3.6-28.6,5.9-42.7
			c1.8-11.5,5.9-23.2,11.8-33.2c8.9-15.4,25.2-30.3,44.5-27.6c11.7,1.7,20.1,14.4,23,24.8c3.9,14,3.6,27.8-1,41.6
			c-5.3,15.9-16.6,28-19.9,44.7c-2.6,12.9,3.4,26,1.3,39.1c-2,12.5-8.7,24.3-16.3,34.2c-14.2,18.4-37.3,32.1-47,53.7
			c-5.4,11.9-6.9,26.7-6.9,39.6c0,8-0.1,15.9,3.6,23.3"/>
		<path class="st4" d="M3041.1,2537.7c0,0.8-1.6-1-1.7-1.8c-0.6-4.4-1.1-9-1.2-13.4c-0.3-10.6,2.6-19.5,6.5-29.2
			c2.2-5.4,4.6-10.8,7.3-15.9c2.3-4.4,5.1-8.1,8.1-11.9c2.4-3.1,4.4-6.5,6.9-9.5c12.6-14.9,36.9-32.9,55.8-17.2
			c11.4,9.5,2.1,30.2-5.7,38.6c-2.9,3.2-6.9,7.3-11.3,8.5c-5.6,1.4-12.9,2.4-17,7c-3.6,4-4,9.1-5.2,14c-1.6,6.3-4.7,12.3-10.3,15.9
			c-12.3,8-34.8,11.7-35.4,30.2"/>
		<path class="st4" d="M2975.4,2546.3c-0.3,0.2,2.3,1,3.2,0.2c2.1-1.7,4.2-4.5,5.2-7c3.2-7.5,3.5-16.3,4.2-24.3
			c2.5-27.3-2.5-56.4-11.2-82.2c-11.7-34.7-45.6-82.1-81.7-93.6c-15-4.8-29.3-4-44.5-2c-9.3,1.2-19.1,3.9-27.1,9
			c-10.3,6.6-21.3,16.4-25,28.5c-5,16.4,6.1,35.9,19.5,44.4c16.7,10.6,36.1,2.5,53.5,9.7c15.4,6.3,11.9,25.6,23.2,36.5
			c14.7,14.2,36.2,14.2,52.7,24.6c8.8,5.6,17.9,27.7,18.8,34.2"/>
		<path class="st32" d="M2956.4,2525.4c-2.8-15.4-17.9-34.5-28.6-40.9c-17.4-10.3-41.9-13.2-57.7-6.8c-6.3,2.6-17.8,10-16.1,21.7
			c2.1,14.5,32.7,5.7,44.6,8c10.4,2,9.2,17.4,19.1,21.1c4.8,1.8,22.1,2.1,23.9,8.1"/>
		<path class="st19" d="M3017.2,2524.2c0,0-16.3-56.3,17.1-99.4c33.4-43.1,36-56.9,39.7-74.3c3.7-17.4,1.7-63.1,12.7-76.9
			 M3049.3,2526.2c0,0,13.1-3.2,16.8-25c2.8-16.4,3-33.6,22.8-38c16.4-3.7,21.1-12.3,22.3-15.8 M2977.7,2524.7
			c0,0-0.5-62.4-47.4-83.8c-41.2-18.8-38.4-41.1-52.6-57.1c-14.2-15.9-43.7-13.7-56.2-11 M2942.2,2526.7c0,0-14.7-1.7-21.3-18.7
			c-4.7-11.9-26.7-20.4-48.1-16.7"/>
		<path class="st21" d="M3004.3,2523.8c0,0-29.5-102.5-1.8-132.9c18.3-20.1,32.8-19,35.6-85.2c5.9-33.9,33.2-65.1,64.2-55
			c21.2,6.9,28.4,52.8-3.3,100.1c-7.3,18.8,1.3,34.3-1.4,49.3c-3.2,17.6-25,45.1-54.4,71.7c-13.3,12.1-17.8,44-15.4,52.3
			 M3037.8,2525.3c-2.2-7.5,23.3-105.7,80.5-89.5c16.1,8.4,10.2,41.8-11.4,49.9c-15.4,5.8-18.5,5.3-22.5,19.5
			c-5.5,14.3-14.2,22.4-20.2,23.8 M2986.6,2523.3c10.6-37.8-14.7-114-31.6-134c-27.8-32.8-40.7-47.3-81.8-54.4
			c-23-1.5-81.3,12.3-74,59.5c3.4,21.6,24.4,30.4,54,32.2c24.1,2.9,24.7,4.1,36.8,32.4c11.9,18.6,38.5,17.4,52.7,27.8
			c14.2,10.5,21.9,32,23.3,36.2 M2956.3,2525.5c0,0-7.6-44.4-62.2-51.1c-20-0.9-46.7,6.6-38.8,28.8c9.8,12.2,30.6-0.1,44.4,6.1
			c13.1,6,14.4,24.6,29.6,22.2"/>
		<path class="st17" d="M3086.6,2632h-181.2v-100c0-2.5,2-4.5,4.5-4.5h172.2c2.5,0,4.5,2,4.5,4.5V2632z"/>
	</g>
	<g class="st2">
		<g>
			
				<rect x="2251.6" y="1293.7" transform="matrix(-0.8919 0.4523 -0.4523 -0.8919 4890.8149 1434.8477)" class="st33" width="44.6" height="16.6"/>
			<path class="st17" d="M2170.4,1225.7c-15.1-29.7-3.2-66,26.5-81c29.7-15.1,66-3.2,81,26.5c15.1,29.7,16.9,98.4-12.8,113.5
				C2235.4,1299.7,2185.5,1255.4,2170.4,1225.7z"/>
			<path class="st33" d="M2223.4,1218.4c0,0,40.8-11.2,30.8,10.8c-10,22-14.1,32.5-4.8,40.5s18.4,1.2,20.2,10.9"/>
			
				<rect x="2238.5" y="1273.6" transform="matrix(-0.8919 0.4523 -0.4523 -0.8919 4866.3086 1405.9856)" class="st33" width="53.2" height="22.1"/>
		</g>
		<g>
			<line class="st34" x1="2275.6" y1="1118.4" x2="2281.4" y2="1057.3"/>
			<line class="st34" x1="2211" y1="1109.7" x2="2190.8" y2="1031.2"/>
			<line class="st34" x1="2148.6" y1="1137.1" x2="2122.5" y2="1105.4"/>
			<line class="st34" x1="2119.1" y1="1205.1" x2="2070.8" y2="1175.7"/>
			<line class="st34" x1="2300" y1="1158.3" x2="2318.1" y2="1137.1"/>
		</g>
	</g>
	<g class="st2">
		<path class="st17" d="M1964.5,2382l-21.4,249.9h-113.2l-17.4-249.9c0,0,29.7-5,76-5S1964.5,2382,1964.5,2382z"/>
		<circle class="st4" cx="1888.5" cy="2479.4" r="33.8"/>
	</g>
	<path class="st35" d="M3868.7,542.7H811.3c-51.7,0-93.6,41.9-93.6,93.6v70.3h3244.6v-70.3C3962.3,584.6,3920.4,542.7,3868.7,542.7z
		"/>
	<path class="st36" d="M699.5,1422.8c-59.4,0-115.3-23.1-157.3-65.1s-65.1-97.9-65.1-157.3s23.1-115.3,65.1-157.3
		c42-42,97.9-65.1,157.3-65.1c59.4,0,115.3,23.1,157.3,65.1c42,42,65.1,97.9,65.1,157.3s-23.1,115.3-65.1,157.3
		C814.8,1399.6,758.9,1422.8,699.5,1422.8z M699.5,1097.9c-56.5,0-102.4,45.9-102.4,102.4s45.9,102.4,102.4,102.4
		c56.5,0,102.4-45.9,102.4-102.4S756,1097.9,699.5,1097.9z"/>
	<g class="st2">
		<circle class="st5" cx="834.6" cy="624.6" r="16.4"/>
		<circle class="st5" cx="897.5" cy="624.6" r="16.4"/>
		<circle class="st5" cx="960.4" cy="624.6" r="16.4"/>
	</g>
	
		<use xlink:href="#mask"  style="overflow:visible;fill-rule:evenodd;clip-rule:evenodd;fill:none;stroke:#3C241B;stroke-width:4;stroke-miterlimit:10;"/>
</g>
<circle class="st37" cx="3962.3" cy="2193.8" r="217.9"/>
<rect x="1123.2" y="2632" class="st13" width="2318.6" height="78.5"/>
<path class="st38" d="M683.9,2816.8c136.5-24,228.1-154.6,204.1-291.1"/>
</svg>
