<svg id="Layer_1" xmlns="http://www.w3.org/2000/svg" xmlns:xlink="http://www.w3.org/1999/xlink" viewBox="0 0 4680 3200"><style>.st0,.st1{fill-rule:evenodd;clip-rule:evenodd}.st0{clip-path:url(#mask_1_);fill:#fff5ee}.st1{fill:#ffe1c8}.st1,.st2{clip-path:url(#mask_1_)}.st3{fill:#ffe1c8}.st4,.st5{fill-rule:evenodd;clip-rule:evenodd;fill:#f75a1d}.st5{fill:#fff}.st6,.st7{fill:none;stroke:#000;stroke-width:4;stroke-linecap:round;stroke-linejoin:round;stroke-miterlimit:10}.st7{stroke-width:9}.st8{fill-rule:evenodd;clip-rule:evenodd;fill:#ffdcdf}.st9{fill:none;stroke:#3c241b;stroke-width:4;stroke-linecap:round;stroke-linejoin:round;stroke-dasharray:27.0622,27.0622}.st10{clip-path:url(#SVGID_2_)}.st11{fill:none;stroke:#3c241b;stroke-width:4;stroke-linecap:round;stroke-linejoin:round;stroke-miterlimit:10}.st12{fill:#3c241b}.st12,.st13,.st14,.st15{fill-rule:evenodd;clip-rule:evenodd}.st13{stroke:#3c241b;stroke-width:4;stroke-miterlimit:10;fill:#f75a1d}.st14,.st15{fill:none}.st14{stroke:#3c241b;stroke-width:4;stroke-linecap:round;stroke-linejoin:round;stroke-miterlimit:10}.st15{clip-path:url(#SVGID_2_)}.st16,.st17{stroke-width:4;stroke-miterlimit:10}.st16{clip-path:url(#SVGID_2_);stroke-linecap:round;stroke-linejoin:round;fill:none;stroke:#fff}.st17{fill-rule:evenodd;clip-rule:evenodd;fill:#fff;stroke:#3c241b}.st18{fill:none;stroke:#f75a1d;stroke-linecap:round;stroke-linejoin:round}.st18,.st19,.st20{stroke-width:4;stroke-miterlimit:10}.st19{stroke-linecap:round;stroke-linejoin:round;fill:none;stroke:#fff}.st20{fill-rule:evenodd;clip-rule:evenodd;fill:#3c41f7;stroke:#3c241b}.st21,.st22,.st23,.st24,.st25,.st26{fill:none;stroke:#543838;stroke-width:4;stroke-linecap:round;stroke-linejoin:round;stroke-miterlimit:10}.st22,.st23,.st24,.st25,.st26{stroke:#3c241b;stroke-width:5}.st23,.st24,.st25,.st26{stroke:#fff;stroke-width:4}.st23{clip-path:url(#SVGID_4_)}.st24,.st25,.st26{fill-rule:evenodd;clip-rule:evenodd}.st25,.st26{stroke:#f75a1d}.st26{stroke:#ffdbdf}.st27{fill:#fff}.st28{stroke-linejoin:round}.st28,.st29,.st30,.st31{fill:none;stroke:#3c241b;stroke-width:4;stroke-miterlimit:10}.st30,.st31{fill:#fff}.st31{clip-path:url(#mask_1_);fill:#fdbfc5}.st31,.st32,.st33,.st34,.st35{fill-rule:evenodd;clip-rule:evenodd}.st32{fill:#3c41f7}.st33,.st34,.st35{stroke-width:4;stroke-miterlimit:10}.st33{fill:#fff;stroke-linecap:round;stroke-linejoin:round;stroke:#000}.st34,.st35{stroke:#3c241b}.st34{stroke-linecap:round;stroke-linejoin:round;fill:#fff}.st35{clip-path:url(#mask_1_);fill:#f75a1d}.st36,.st37,.st38{fill:none;stroke-miterlimit:10}.st36{clip-path:url(#mask_1_);stroke:#3c241b;stroke-width:4}.st37,.st38{stroke-width:120;stroke-linecap:round;stroke-linejoin:round}.st37{fill-rule:evenodd;clip-rule:evenodd;stroke:#3c41f7}.st38{stroke:#f75a1d}</style><defs><path id="mask" d="M3868.7 542.7H811.3c-51.7 0-93.6 41.9-93.6 93.6v1942.4c0 51.7 41.9 93.6 93.6 93.6h3057.4c51.7 0 93.6-41.9 93.6-93.6V636.3c0-51.7-41.9-93.6-93.6-93.6z"/></defs><clipPath id="mask_1_"><use xlink:href="#mask" overflow="visible"/></clipPath><path class="st0" d="M3868.7 542.7H811.3c-51.7 0-93.6 41.9-93.6 93.6v1942.4c0 51.7 41.9 93.6 93.6 93.6h3057.4c51.7 0 93.6-41.9 93.6-93.6V636.3c0-51.7-41.9-93.6-93.6-93.6z"/><circle class="st1" cx="2431.2" cy="2065.5" r="868.5"/><g class="st2"><circle class="st3" cx="922.7" cy="1726.3" r="24.8"/><ellipse transform="rotate(-58.286 1021.831 1726.204)" class="st3" cx="1022" cy="1726.3" rx="24.8" ry="24.8"/><ellipse transform="rotate(-76.714 1121.377 1726.396)" class="st3" cx="1121.2" cy="1726.3" rx="24.8" ry="24.8"/><ellipse transform="rotate(-28.156 1220.41 1726.16)" class="st3" cx="1220.5" cy="1726.3" rx="24.8" ry="24.8"/><ellipse transform="rotate(-18.432 1320.026 1726.415)" class="st3" cx="1319.8" cy="1726.3" rx="24.8" ry="24.8"/><circle class="st3" cx="922.7" cy="1825.6" r="24.8"/><ellipse transform="rotate(-31.714 1022.068 1825.695)" class="st3" cx="1022" cy="1825.6" rx="24.8" ry="24.8"/><ellipse transform="rotate(-82.981 1121.271 1825.615)" class="st3" cx="1121.2" cy="1825.6" rx="24.8" ry="24.8"/><ellipse transform="rotate(-18.432 1220.725 1825.724)" class="st3" cx="1220.5" cy="1825.6" rx="24.8" ry="24.8"/><ellipse transform="rotate(-28.156 1319.69 1825.444)" class="st3" cx="1319.8" cy="1825.6" rx="24.8" ry="24.8"/><circle class="st3" cx="922.7" cy="1924.9" r="24.8"/><ellipse transform="rotate(-16.843 1021.968 1924.764)" class="st3" cx="1022" cy="1924.9" rx="24.8" ry="24.8"/><ellipse transform="rotate(-85.269 1121.237 1924.88)" class="st3" cx="1121.2" cy="1924.9" rx="24.8" ry="24.8"/><ellipse transform="rotate(-13.286 1220.233 1924.529)" class="st3" cx="1220.5" cy="1924.9" rx="24.8" ry="24.8"/><ellipse transform="rotate(-45.001 1319.821 1924.918)" class="st3" cx="1319.8" cy="1924.9" rx="24.8" ry="24.8"/><circle class="st3" cx="922.7" cy="2024.2" r="24.8"/><ellipse transform="rotate(-58.286 1021.824 2024.07)" class="st3" cx="1022" cy="2024.2" rx="24.8" ry="24.8"/><ellipse transform="rotate(-76.714 1121.385 2024.305)" class="st3" cx="1121.2" cy="2024.2" rx="24.8" ry="24.8"/><ellipse transform="rotate(-28.156 1220.406 2024.02)" class="st3" cx="1220.5" cy="2024.2" rx="24.8" ry="24.8"/><ellipse transform="rotate(-18.432 1320.038 2024.33)" class="st3" cx="1319.8" cy="2024.2" rx="24.8" ry="24.8"/><circle class="st3" cx="922.7" cy="2123.5" r="24.8"/><ellipse transform="rotate(-31.714 1022.076 2123.602)" class="st3" cx="1022" cy="2123.5" rx="24.8" ry="24.8"/><ellipse transform="rotate(-82.981 1121.273 2123.506)" class="st3" cx="1121.2" cy="2123.5" rx="24.8" ry="24.8"/><ellipse transform="rotate(-18.432 1220.736 2123.639)" class="st3" cx="1220.5" cy="2123.5" rx="24.8" ry="24.8"/><ellipse transform="rotate(-28.156 1319.686 2123.303)" class="st3" cx="1319.8" cy="2123.5" rx="24.8" ry="24.8"/><circle class="st3" cx="922.7" cy="2222.8" r="24.8"/><ellipse transform="rotate(-10.9 1022.007 2222.86)" class="st3" cx="1022" cy="2222.8" rx="24.8" ry="24.8"/><ellipse transform="rotate(-86.438 1121.244 2222.776) scale(1.00003)" class="st3" cx="1121.2" cy="2222.8" rx="24.8" ry="24.8"/><ellipse transform="rotate(-10.276 1220.746 2223.069)" class="st3" cx="1220.5" cy="2222.8" rx="24.8" ry="24.8"/><ellipse transform="rotate(-61.844 1319.837 2222.717)" class="st3" cx="1319.8" cy="2222.8" rx="24.8" ry="24.8"/></g><g class="st2"><path class="st4" d="M1741 1402.6c81.4 0 147.5 66.1 147.5 147.5s-66.1 147.5-147.5 147.5-147.5-66.1-147.5-147.5 66.1-147.5 147.5-147.5z"/><path class="st5" d="M1741 1434.3c65.1 0 118 51.9 118 115.8s-52.9 115.8-118 115.8-118-51.9-118-115.8 52.9-115.8 118-115.8z"/><path class="st6" d="M1742.4 1401.1c81.8 0 148.3 66.1 148.3 147.5s-66.4 147.5-148.3 147.5-148.3-66.1-148.3-147.5 66.5-147.5 148.3-147.5z"/><path class="st7" d="M1747 1502.6L1745.5 1569.9 1696.5 1570.6"/></g><g class="st2"><path class="st8" d="M3628.1 938.6c0-8.9-3.5-17.4-9.8-23.7-6.3-6.3-14.8-9.8-23.7-9.8h-781.8c-17.9 0-32.4 14.5-32.4 32.4v544.8c0 11.3 4.5 22.2 12.5 30.2s18.8 12.5 30.1 12.5h758.8c25.6 0 46.3-20.7 46.3-46.3V938.6z"/><path class="st9" d="M3628.1 938.6c0-8.9-3.5-17.4-9.8-23.7-6.3-6.3-14.8-9.8-23.7-9.8h-781.8c-17.9 0-32.4 14.5-32.4 32.4v544.8c0 11.3 4.5 22.2 12.5 30.2s18.8 12.5 30.1 12.5h758.8c25.6 0 46.3-20.7 46.3-46.3V938.6z"/><g><defs><path id="SVGID_1_" d="M3586 1525h-763.6c-23.2 0-42.1-18.8-42.1-42.1V947.2c0-23.2 18.8-42.1 42.1-42.1H3586c23.2 0 42.1 18.8 42.1 42.1v535.7c0 23.2-18.8 42.1-42.1 42.1z"/></defs><clipPath id="SVGID_2_"><use xlink:href="#SVGID_1_" overflow="visible"/></clipPath><g class="st10"><path class="st11" d="M3022.2 1363.2c0-7.3-6.4-13.1-14.3-13.1h-121.1c-7.9 0-14.3 5.9-14.3 13.1v26.3c0 7.3 6.4 13.1 14.3 13.1h121.1c7.9 0 14.3-5.9 14.3-13.1v-26.3z"/><path class="st12" d="M2911.4 1365.5c6.1 0 11 4.6 11 10.2s-4.9 10.2-11 10.2-11-4.6-11-10.2c-.1-5.6 4.9-10.2 11-10.2zm38.2.3c6.1 0 11 4.6 11 10.2s-4.9 10.2-11 10.2-11-4.6-11-10.2c0-5.7 4.9-10.2 11-10.2zm36.2-.1c6.1 0 11 4.6 11 10.2s-4.9 10.2-11 10.2-11-4.6-11-10.2 4.9-10.2 11-10.2z"/><path class="st5" d="M3215.9 1116.5s2.3 101.9 36.2 148c8.4 11.4 38.8 11.7 56.8 5.2-.9 36.9 3.3 52.2 3.3 52.2s61.7 47.3 95.3-13.8c-4.4-37.1-8.2-108.7-8.2-108.7s61.6-13.1 41.2-60.2c-7.6-17.6-35.7 10.4-35.7 10.4l-16-69.4-95.8-32-77.1 68.3z"/><path class="st12" d="M3308.2 1135.9c3.6 0 6.5 2.9 6.5 6.5s-2.9 6.5-6.5 6.5-6.5-2.9-6.5-6.5 2.9-6.5 6.5-6.5zm-65.7 11.2c3.6 0 6.5 2.9 6.5 6.5s-2.9 6.5-6.5 6.5-6.5-2.9-6.5-6.5c0-3.5 2.9-6.5 6.5-6.5z"/><path class="st11" d="M3263.2 1177.1L3261.2 1194.7 3268.4 1192.3"/><path class="st12" d="M3216.7 1121.1s-52.5 5.4-63-44.2c-5.8-27.5 23.9-80.5 58.4-94.1 33.6-13.3 61.7 8.1 61.7 8.1s7.7-18.5 16.7-27.2c13.3-12.9 49.5-22.1 74-7.2 32.5 19.7 22.8 65.3 22.8 65.3s38.4-9.1 56.4 19.3c21.8 34.4-10.1 52.4-10.1 52.4s35.2 16.8 38.8 51.9c2.8 27.8-9.4 40.2-39.7 57.6-21.2 12.2-34.1-2.7-34.1-2.7s44.9-21.1 46.2-37.8c1.3-17.8-12.4-26.4-40.2-12.9-21.4-7.1-19.8-41.9-19.8-41.9s-27.9-2.3-34.3-13.3c-8.2-14.3-9.6-28.1-9.6-28.1s-11.7 20.6-41.1 25.3c-12.9 2-36.5-14.3-36.5-14.3s-9.2 34.3-46.6 43.8z"/><path class="st13" d="M3310.6 1312.2s-129.7-3.1-198.4 92.5c-51.3 71.5-45.7 119.7-45.7 119.7l272.6 4.6 285.1 2.7s-83.7-211.1-216.5-224.9c-8.8 8.3-26.9 33.5-49.3 32.3-15.2-.8-31.5-2.8-47.8-26.9z"/><path class="st14" d="M3308.9 1269.8s52.8-5.9 71.1-54"/><path class="st12" d="M3256.8 1214l46-4.1s2.7 24.3-21.6 25.2c-20.2.7-24.4-21.1-24.4-21.1z"/></g><path class="st15" d="M3310.6 1312.2s-129.7-3.1-198.4 92.5c-51.3 71.5-45.7 119.7-45.7 119.7l272.6 4.6 285.1 2.7s-83.7-211.1-216.5-224.9c-8.8 8.3-26.9 33.5-49.3 32.3-15.2-.8-31.5-2.8-47.8-26.9z"/><path class="st16" d="M3178.2 1347.6s83.5 24.1 172.7 22.7c49.2-.8 100.5-20.8 139.4-29.8m-356.1 41.2s48.7 12.1 63.7 21.8c8.7 5.6 53.9 20.7 109.4 32.2 58.8 12.2 136.4-6.3 149.4-7.3 34.8-2.7 74.4-25.1 87.9-32m-463.7 67.1s59.9 13.2 100.6 24.6c171.4 48.3 274.1-2.5 297.5.4 43.1 5.4 109.8-32.8 110.1-33.1"/><g><path class="st17" d="M2995.2 997.5c0-6.1-5.1-11.1-11.4-11.1h-282.9c-7.1 0-12.8 5.6-12.8 12.4v237.9c0 4.6 3.9 8.4 8.7 8.4h287.6c6 0 10.9-4.7 10.9-10.5-.1-41.6-.1-194.5-.1-237.1z"/><path class="st12" d="M2749.7 1055.4c6 0 10.8 4.8 10.8 10.8 0 6-4.8 10.8-10.8 10.8-6 0-10.8-4.8-10.8-10.8 0-6 4.9-10.8 10.8-10.8zm-.1 51.1c5.5 0 10 4.5 10 10s-4.5 10-10 10-10-4.5-10-10 4.5-10 10-10zm1.4 52.1c5.5 0 10 4.5 10 10s-4.5 10-10 10-10-4.5-10-10c-.1-5.5 4.4-10 10-10z"/><path class="st18" d="M2787.5 1064.4H2930m-143.7 53.3l142.6-1.1m-141.5 51H2930"/></g></g></g><g class="st2"><path class="st4" d="M2088.1 1920.2s-425.4-43.1-484.5 69.4c-41.1 78.1-31.5 249.1-27.1 362.6 3.9 103.2 9.7 301.7 9.7 301.7s378 5.7 389.6 2.9c11.5-2.8 112.3-736.6 112.3-736.6z"/><path class="st19" d="M1658.9 1980.6s37.4 36.9 24.3 144.1"/></g><g class="st2"><path class="st20" d="M2175.1 1855.7s-270.9 125.8-305.4 342.2c-34.8 218.5-14.9 467.9-14.9 467.9s652.1 124 809.5-41.6c107.6-113.3 298.2-765.9 298.2-765.9l-95.6-32.8-188.6 310.2s-184.3-207.6-284.1-254.1"/><path class="st5" d="M2869.6 1827l11.6-20.9s4.4-107.1 30.9-106.1c22.6.8 12.3 38.4 12.3 38.4s90.4-83.2 104.7-65.8c3.2 3.8 1 9 1 9s13-12.6 21.5-5.7c7.8 6.4-3.3 17-3.3 17s15.2-10.1 22.1-2c6.4 7.6-10.6 23.1-10.6 23.1s6.3-3.4 11 3.1c4.5 6.3-12.1 22.1-18.1 27.7-18.1 17.2-86.8 83.4-86.8 83.4l-7.1 29.1-89.2-30.3zm-496.5-12.5l-6.7 40.6 8.7 8.9 20.3 17.8s-30.8 51-105.3 37.9c-79.2-14-116.4-63.7-116.4-63.7l79.9-24 17.8-122.3"/><path class="st5" d="M2478.1 1562.2s-.2 99.6-14 175.3c-7.7 42-14.2 82.3-39.1 87.2-30.8 6-154.7-16.8-157.3-55.7-1.5-22.7 8.8-58.3 8.8-58.3s-24.9 3.1-43.7-14.6c-13.4-12.5-28.3-55.2-5.9-71.6 27.4-20.2 60.7 32.7 60.7 32.7l19.6-67.6s81.4-109.9 170.1-34.4"/><path class="st12" d="M2382.1 1723.7l49.4 1.6s-.3 26.2-26.2 23.9c-21.7-1.7-23.2-25.5-23.2-25.5zm-17.6-83.8c3.4 0 6.1 3 6.1 6.6s-2.7 6.6-6.1 6.6c-3.4 0-6.1-3-6.1-6.6s2.8-6.6 6.1-6.6zm82-10.5c3.4 0 6.1 3 6.1 6.6s-2.7 6.6-6.1 6.6c-3.4 0-6.1-3-6.1-6.6s2.8-6.6 6.1-6.6z"/><path class="st12" d="M2272.9 1732.5s-172.7-29.2-125.6-134.9c16.3-36.7 57.2-28.5 57.2-28.5s-10.9-66.9 27.8-93.2c38.2-25.9 68.2 10.5 68.2 10.5s-1.6-83.7 79.2-92.1c68.9-7.2 73.5 66.5 73.5 66.5s90.5-3.9 94.3 40.9c5.3 62.8-70.5 59.8-70.5 59.8s-68.2 54.8-158.9 29.4c-15.3-4.3-25.9 76-25.9 76s-41.5-55.4-61.6-40.6c-16.3 12.1-16.7 39.1-1.9 55.4 16.3 18.1 48.8 25.2 48.8 25.2l-4.6 25.6z"/><path class="st21" d="M2369.6 1820.5c-33.1-8.3-71.4-30.8-80.6-71m641.8-2.8s20.9 24.4 10.6 48.7m87.3-112.9s-30.4 22.3-38.4 30.8m56.8-19.3s-34.9 26.7-41.9 32.8m53.6-12.1s-29.2 20.8-36.5 28.5m-779.3-94l25.4 29.7m-12.2-14.3l-9 11.5"/><path class="st22" d="M2423 1673.3L2427.1 1700 2414.4 1696.1"/><path class="st5" d="M2469.1 2573.6s41.5-17.8 77.2-15.9c33.8 1.8 44.8 6.4 65 18.8 13.8 8.4 15.1 23.5 15.1 23.5h-157.2l-.1-26.4z"/><defs><path id="SVGID_3_" d="M2175.1 1855.7s-270.9 125.8-305.4 342.2c-34.8 218.5-14.9 467.9-14.9 467.9s652.1 124 809.5-41.6c107.6-113.3 298.2-765.9 298.2-765.9l-95.6-32.8-188.6 310.2s-184.3-207.6-284.1-254.1"/></defs><clipPath id="SVGID_4_"><use xlink:href="#SVGID_3_" overflow="visible"/></clipPath><path class="st23" d="M2473.4 2050.8c85.6 116.7 160 339.3 135 551m69.1-468.2s-27.1 37.1-32.8 67.7c-8.5 46.1-1.8 76.5-1.8 76.5m-522.7-172.6s10.5 246.5 94.9 354.2c52.7 67.3 128.3 100.8 251.3 104.8 1.1 18.3 1.1 32.3 1.1 32.3m-574.8-341.2s26.9 277.8 207.1 371.4m216.4-705.8l-12.4 85.6s-55.7-16.4-104.1-54.6c-25.2-19.9-46.7-49.2-61-77.6m184.6 46.7s28 81.7 27.8 82.8c-.2 1.1 40.1-16 70.7-107.8"/><g><path class="st24" d="M2200.5 2058.9s18.4 34.3-16.9 44.2"/><path class="st25" d="M2342.2 2132.8s-1.1-38.9 34.9-31.9"/><path class="st24" d="M2449.7 2018.1s34.3-18.4 44.2 16.9"/><path class="st25" d="M2604.2 2145.9s-34.7-17.7-11.4-45.9m-372.6 238.6s18.5-34.3 46.2-10.2m238.5 9.7s15.1-35.9 44.9-14.7"/><path class="st24" d="M2367.1 2247.6s38.4-6.4 36.4 30.2m-60.4 156.3s37.7 9.7 21.1 42.3m159.7-16s-9.8 37.7-42.4 21"/><path class="st25" d="M1993.9 2161.1s10.8-37.4 42.9-19.8"/><path class="st26" d="M2046 2370.9s34.3-18.4 44.2 16.9"/></g></g><g class="st2"><path class="st27" d="M1211.1 2116.4L1758.1 2116.4 1760.1 2632 1211.1 2632z"/><path class="st27" d="M1758.1 2116.4L1862.2 2189.9 1862.2 2632 1758.1 2632z"/><path class="st27" d="M1760.1 2116.4L1864.1 2189.9 1862.2 2292 1758.1 2248.4z"/><path class="st28" d="M1212.7 2249.3c182.6-.9 362.9-.9 545.4-.9 32.2 14.3 71.3 28.9 104 43.6"/><path class="st29" d="M1211.1 2632L1211.1 2116.4"/><path class="st30" d="M1760.1 2116.4L1758.1 2632"/></g><g class="st2"><path class="st20" d="M1181.7 2047.6h364.4c11.1 0 21.5 35.9 11.8 68.8h-376.2"/><path class="st13" d="M1211.1 1991.7h295.5c9 0 17.4 29.1 9.6 55.8h-305.1v-55.8z"/></g><path class="st31" d="M2092.9 2596.1H3391.8V2631.9H2092.9z"/><g class="st2"><path class="st17" d="M3314.8 2109.4h-564.2c-25.4 0-47.8 18.3-55 44.8l-114.9 424.4h-356.4v17.4h379.6l4.1-15.3h655.9l105.9-391.1c10.9-40-16.7-80.2-55-80.2z"/><path class="st17" d="M2767.4 2127.7h555.2c38.3 0 65.9 40 55 79.8l-105.9 388.6h-674.8l115.5-423.9c7.2-26.4 29.6-44.5 55-44.5z"/></g><g class="st2"><path class="st32" d="M3004.2 2524.9c-5.3-20.7-25.7-97.3-8.1-124.6 10.6-16.5 29.7-30.6 36.3-49.3 4.9-13.6 3.6-28.6 5.9-42.7 1.8-11.5 5.9-23.2 11.8-33.2 8.9-15.4 25.2-30.3 44.5-27.6 11.7 1.7 20.1 14.4 23 24.8 3.9 14 3.6 27.8-1 41.6-5.3 15.9-16.6 28-19.9 44.7-2.6 12.9 3.4 26 1.3 39.1-2 12.5-8.7 24.3-16.3 34.2-14.2 18.4-37.3 32.1-47 53.7-5.4 11.9-6.9 26.7-6.9 39.6 0 8-.1 15.9 3.6 23.3"/><path class="st4" d="M3041.1 2537.7c0 .8-1.6-1-1.7-1.8-.6-4.4-1.1-9-1.2-13.4-.3-10.6 2.6-19.5 6.5-29.2 2.2-5.4 4.6-10.8 7.3-15.9 2.3-4.4 5.1-8.1 8.1-11.9 2.4-3.1 4.4-6.5 6.9-9.5 12.6-14.9 36.9-32.9 55.8-17.2 11.4 9.5 2.1 30.2-5.7 38.6-2.9 3.2-6.9 7.3-11.3 8.5-5.6 1.4-12.9 2.4-17 7-3.6 4-4 9.1-5.2 14-1.6 6.3-4.7 12.3-10.3 15.9-12.3 8-34.8 11.7-35.4 30.2m-62.5-6.7c-.3.2 2.3 1 3.2.2 2.1-1.7 4.2-4.5 5.2-7 3.2-7.5 3.5-16.3 4.2-24.3 2.5-27.3-2.5-56.4-11.2-82.2-11.7-34.7-45.6-82.1-81.7-93.6-15-4.8-29.3-4-44.5-2-9.3 1.2-19.1 3.9-27.1 9-10.3 6.6-21.3 16.4-25 28.5-5 16.4 6.1 35.9 19.5 44.4 16.7 10.6 36.1 2.5 53.5 9.7 15.4 6.3 11.9 25.6 23.2 36.5 14.7 14.2 36.2 14.2 52.7 24.6 8.8 5.6 17.9 27.7 18.8 34.2"/><path class="st32" d="M2956.4 2525.4c-2.8-15.4-17.9-34.5-28.6-40.9-17.4-10.3-41.9-13.2-57.7-6.8-6.3 2.6-17.8 10-16.1 21.7 2.1 14.5 32.7 5.7 44.6 8 10.4 2 9.2 17.4 19.1 21.1 4.8 1.8 22.1 2.1 23.9 8.1"/><path class="st19" d="M3017.2 2524.2s-16.3-56.3 17.1-99.4c33.4-43.1 36-56.9 39.7-74.3 3.7-17.4 1.7-63.1 12.7-76.9m-37.4 252.6s13.1-3.2 16.8-25c2.8-16.4 3-33.6 22.8-38 16.4-3.7 21.1-12.3 22.3-15.8m-133.5 77.3s-.5-62.4-47.4-83.8c-41.2-18.8-38.4-41.1-52.6-57.1-14.2-15.9-43.7-13.7-56.2-11m120.7 153.9s-14.7-1.7-21.3-18.7c-4.7-11.9-26.7-20.4-48.1-16.7"/><path class="st21" d="M3004.3 2523.8s-29.5-102.5-1.8-132.9c18.3-20.1 32.8-19 35.6-85.2 5.9-33.9 33.2-65.1 64.2-55 21.2 6.9 28.4 52.8-3.3 100.1-7.3 18.8 1.3 34.3-1.4 49.3-3.2 17.6-25 45.1-54.4 71.7-13.3 12.1-17.8 44-15.4 52.3m10 1.2c-2.2-7.5 23.3-105.7 80.5-89.5 16.1 8.4 10.2 41.8-11.4 49.9-15.4 5.8-18.5 5.3-22.5 19.5-5.5 14.3-14.2 22.4-20.2 23.8m-77.6-5.7c10.6-37.8-14.7-114-31.6-134-27.8-32.8-40.7-47.3-81.8-54.4-23-1.5-81.3 12.3-74 59.5 3.4 21.6 24.4 30.4 54 32.2 24.1 2.9 24.7 4.1 36.8 32.4 11.9 18.6 38.5 17.4 52.7 27.8 14.2 10.5 21.9 32 23.3 36.2m-9.7 2.5s-7.6-44.4-62.2-51.1c-20-.9-46.7 6.6-38.8 28.8 9.8 12.2 30.6-.1 44.4 6.1 13.1 6 14.4 24.6 29.6 22.2"/><path class="st17" d="M3086.6 2632h-181.2v-100c0-2.5 2-4.5 4.5-4.5h172.2c2.5 0 4.5 2 4.5 4.5v100z"/></g><g class="st2"><path transform="scale(-1) rotate(-26.89 -5446.161 9511.207)" class="st33" d="M2251.6 1293.7H2296.2V1310.3H2251.6z"/><path class="st17" d="M2170.4 1225.7c-15.1-29.7-3.2-66 26.5-81 29.7-15.1 66-3.2 81 26.5 15.1 29.7 16.9 98.4-12.8 113.5-29.7 15-79.6-29.3-94.7-59z"/><path class="st33" d="M2223.4 1218.4s40.8-11.2 30.8 10.8c-10 22-14.1 32.5-4.8 40.5s18.4 1.2 20.2 10.9"/><path transform="scale(-1) rotate(-26.89 -5373.547 9474.386)" class="st33" d="M2238.5 1273.6H2291.7V1295.6999999999998H2238.5z"/><g><path class="st34" d="M2275.6 1118.4L2281.4 1057.3"/><path class="st34" d="M2211 1109.7L2190.8 1031.2"/><path class="st34" d="M2148.6 1137.1L2122.5 1105.4"/><path class="st34" d="M2119.1 1205.1L2070.8 1175.7"/><path class="st34" d="M2300 1158.3L2318.1 1137.1"/></g></g><g class="st2"><path class="st17" d="M1964.5 2382l-21.4 249.9h-113.2l-17.4-249.9s29.7-5 76-5 76 5 76 5z"/><circle class="st4" cx="1888.5" cy="2479.4" r="33.8"/></g><path class="st35" d="M3868.7 542.7H811.3c-51.7 0-93.6 41.9-93.6 93.6v70.3h3244.6v-70.3c0-51.7-41.9-93.6-93.6-93.6z"/><path class="st36" d="M699.5 1422.8c-59.4 0-115.3-23.1-157.3-65.1s-65.1-97.9-65.1-157.3 23.1-115.3 65.1-157.3c42-42 97.9-65.1 157.3-65.1 59.4 0 115.3 23.1 157.3 65.1 42 42 65.1 97.9 65.1 157.3s-23.1 115.3-65.1 157.3c-42 41.9-97.9 65.1-157.3 65.1zm0-324.9c-56.5 0-102.4 45.9-102.4 102.4s45.9 102.4 102.4 102.4c56.5 0 102.4-45.9 102.4-102.4s-45.9-102.4-102.4-102.4z"/><g class="st2"><circle class="st5" cx="834.6" cy="624.6" r="16.4"/><circle class="st5" cx="897.5" cy="624.6" r="16.4"/><circle class="st5" cx="960.4" cy="624.6" r="16.4"/></g><use xlink:href="#mask" overflow="visible" fill-rule="evenodd" clip-rule="evenodd" fill="none" stroke="#3C241B" stroke-width="4" stroke-miterlimit="10"/><circle class="st37" cx="3962.3" cy="2193.8" r="217.9"/><path class="st13" d="M1123.2 2632H3441.8V2710.5H1123.2z"/><path class="st38" d="M683.9 2816.8c136.5-24 228.1-154.6 204.1-291.1"/></svg>