<svg id="Layer_1" enable-background="new 0 0 511 511" height="512" viewBox="0 0 511 511" width="512" xmlns="http://www.w3.org/2000/svg"><g><path d="m407.215 0c-23.869 0-43.682 17.695-47.008 40.657-14.905 2.828-26.715 14.508-29.739 29.343h-3.253c-21.895 0-41.036 15.312-46.154 36.246-18.82-6.919-39.104-10.47-59.711-10.235.158-.484.304-.972.435-1.464 23.094-3.208 40.929-23.084 40.929-47.047-1.82-58.913-84.473-64.459-94.508-6.843-14.904 2.828-26.714 14.508-29.738 29.343h-3.253c-23.957 0-43.829 17.83-47.045 40.915-11.762 3.119-20.455 13.856-20.455 26.585h15c0-6.893 5.607-12.5 12.5-12.5h7.5v-7.5c0-17.92 14.58-32.5 32.5-32.5h17.5v-7.5c0-12.407 10.093-22.5 22.5-22.5h7.5v-7.5c0-17.92 14.58-32.5 32.5-32.5 43.118 1.786 43.101 63.222 0 65h-7.5v7.5c0 3.805-1.677 7.313-4.617 9.702-206.68 31.637-190.03 326.723 20.119 333.798 20.169 0 39.894-3.549 58.624-10.549l-5.251-14.051c-40.83 15.788-90.793 11.608-127.827-9.842l49.953-49.953v-58.605h-68.394l-56.276-56.276c10.739-50.47 46.521-91.785 93.67-110.271v49.153l52.393 52.394h58.606v-68.394l22.314-22.314c15.184 9.02 28.87 20.737 40.376 34.83l11.619-9.486c-15.971-19.562-35.767-34.957-57.875-45.468 2.561-15.521 16.265-27.168 32.066-27.168h17.5v-7.5c0-12.407 10.093-22.5 22.5-22.5h7.5v-7.5c0-17.92 14.58-32.5 32.5-32.5 43.118 1.786 43.101 63.222 0 65h-7.5v7.5c0 6.893-5.607 12.5-12.5 12.5h-7.5v7.5c0 12.407-10.093 22.5-22.5 22.5v15c18.42 0 33.78-13.348 36.915-30.88 9.574-2.489 17.137-10.019 19.67-19.575 57.859-9.791 52.447-92.716-6.585-94.545zm-283.106 303h59.606v37.394l-47.967 47.967c-42.83-29.596-69.624-83.054-64.456-138.177zm139.606-154.606v59.606h-37.394l-43.606-43.606v-47.934c33.783-9.567 72.803-6.36 104.413 8.521z"/><path d="m183.215 256h16v15h-16z"/><path d="m215.215 256h16v15h-16z"/><path d="m247.215 256h16v15h-16z"/><path d="m367.215 408c-17.369 0-31.5 14.131-31.5 31.5 1.73 41.789 61.276 41.777 63 0 0-17.369-14.131-31.5-31.5-31.5zm0 48c-9.098 0-16.5-7.402-16.5-16.5.906-21.889 32.097-21.883 33 0 0 9.098-7.402 16.5-16.5 16.5z"/><path d="m406.715 379.895v-203.895h-79v96h-32v36.394l-51.106 51.106 37.303 37.303 10.606-10.606-26.697-26.697 44.894-44.894v-27.606h17v92.895c-58.479 39.41-31.2 130.549 39.501 131.105 70.705-.559 97.975-91.707 39.499-131.105zm-39.5 116.105c-57.693-.583-77.817-76.156-28.245-105.445l3.745-2.167v-197.388h49v197.388l3.745 2.167c49.596 29.311 29.413 104.874-28.245 105.445z"/><path d="m359.715 215.5h15v176h-15z"/></g></svg>