<?xml version="1.0" encoding="iso-8859-1"?>
<!-- Generator: Adobe Illustrator 19.0.0, SVG Export Plug-In . SVG Version: 6.00 Build 0)  -->
<svg xmlns="http://www.w3.org/2000/svg" xmlns:xlink="http://www.w3.org/1999/xlink" version="1.1" id="Layer_1" x="0px" y="0px" viewBox="0 0 512 512" style="enable-background:new 0 0 512 512;" xml:space="preserve" width="512" height="512">
<g>
	<path d="M454.128,277.641L305.524,0.055L177.417,110.69l-14.552,74.456L86.56,155.417L57.31,277.641H0v30h512v-30H454.128z    M107.728,195.86l77.695,30.271l19.448-99.511l91.894-79.362L420.1,277.641H88.157L107.728,195.86z"/>
	<path d="M267.896,365.819L256,350.327l-11.896,15.492c-0.453,0.59-11.222,14.646-22.143,31.883   c-21.241,33.525-23.698,48.305-23.698,56.506c0,31.837,25.9,57.737,57.737,57.737s57.737-25.9,57.737-57.737   c0-8.201-2.457-22.98-23.698-56.506C279.119,380.466,268.35,366.409,267.896,365.819z M256,481.945   c-15.294,0-27.737-12.443-27.737-27.737c0-9.031,12.898-32.146,27.729-53.709c14.871,21.679,27.744,44.935,27.744,53.709   C283.737,469.502,271.294,481.945,256,481.945z"/>
	<path d="M443.376,365.819l-11.896-15.492l-11.896,15.492c-0.453,0.59-11.222,14.646-22.143,31.883   c-21.241,33.525-23.698,48.305-23.698,56.506c0,31.837,25.9,57.737,57.737,57.737s57.737-25.9,57.737-57.737   c0-8.201-2.457-22.98-23.698-56.506C454.598,380.466,443.829,366.409,443.376,365.819z M431.479,481.945   c-15.294,0-27.737-12.443-27.737-27.737c0-9.032,12.902-32.154,27.737-53.721c14.835,21.567,27.737,44.688,27.737,53.721   C459.217,469.502,446.774,481.945,431.479,481.945z"/>
	<path d="M92.417,365.819l-11.896-15.492l-11.896,15.492c-0.453,0.59-11.222,14.646-22.143,31.883   c-21.241,33.525-23.698,48.305-23.698,56.506c0,31.837,25.901,57.737,57.737,57.737s57.737-25.9,57.737-57.737   c0-8.201-2.457-22.98-23.698-56.506C103.639,380.466,92.87,366.409,92.417,365.819z M80.521,481.945   c-15.294,0-27.737-12.443-27.737-27.737c0-9.031,12.898-32.146,27.729-53.71c14.871,21.68,27.745,44.936,27.745,53.71   C108.257,469.502,95.814,481.945,80.521,481.945z"/>
</g>















</svg>
