<svg id="Capa_1" enable-background="new 0 0 512 512" height="512" viewBox="0 0 512 512" width="512" xmlns="http://www.w3.org/2000/svg"><g><path d="m471.812 361.498-30.125.001v-60.251h-59.683l21.632-24.022c-20.899-45.7-52.935-87.488-92.449-118.914v-46.96c12.848-14.583 20.125-33.583 20.125-53.119v-57.538l-54.476 13.554-40.903-14.249-40.899 14.249-54.472-13.555v57.539c0 19.536 7.277 38.537 20.125 53.119v46.96c-36.415 29.103-66.463 66.327-87.162 108.083-21.81 43.999-33.338 93.213-33.338 142.322.001 56.95 46.334 103.283 103.284 103.283h268.092v-60.249h60.25v-90.253zm-60.124.002-34.098.001-9.101-30.253h43.199zm-221-241.125h90.5v30.25h-90.5zm-20.126-81.301 25.9 6.445 39.47-13.751 39.475 13.751 25.905-6.446v19.159c0 11.735-4.182 23.169-11.622 32.142h-107.505c-7.44-8.973-11.622-20.407-11.622-32.142v-19.158zm-27.091 442.926c-40.408 0-73.283-32.875-73.283-73.283 0-44.511 10.449-89.118 30.217-128.998 19.029-38.388 46.77-72.553 80.413-99.094h110.24c31.479 24.833 57.761 56.312 76.611 91.711l-36.152 40.148 16.713 55.56-45.98 19.928 15.062 40.665-45.188 19.579 12.512 33.784zm238.091 0h-64.935l-6.501-17.554 29.299-12.694h42.138v30.248zm60.25-60.249h-30.25v-.005h-64.812l-6.499-17.547 29.297-12.697h72.139v-.002h.125z"/><path d="m289.33 361.433c0-24.879-20.241-45.12-45.12-45.12h-16.545c-8.337 0-15.12-6.783-15.12-15.121s6.783-15.12 15.12-15.12h16.166c8.348 0 15.139 6.791 15.139 15.139h30c0-22.472-16.508-41.155-38.032-44.574v-20.219h-30v20.159c-21.699 3.258-38.393 22.024-38.393 44.617 0 24.879 20.241 45.12 45.12 45.12h16.545c8.337 0 15.12 6.783 15.12 15.121s-6.783 15.12-15.12 15.12h-16.839c-8.043 0-14.587-6.543-14.587-14.587h-30c0 22.4 16.607 40.988 38.153 44.116v20.126h30v-20.16c21.7-3.259 38.393-22.024 38.393-44.617z"/></g></svg>